<?xml version="1.0" encoding="UTF-8"?>
<svg xmlns="http://www.w3.org/2000/svg" xmlns:xlink="http://www.w3.org/1999/xlink" version="1.2" >
<font id="Basel-Bold-Demo">
<font-face  font-family="Basel" units-per-em="1024" ascent="975" descent="-300" font-style="normal" font-weight="700" font-stretch="normal" cap-height="1000" x-height="488" underline-position="-125" underline-thickness="50" />
<missing-glyph  horiz-adv-x="512" d="" />
<glyph glyph-name="space" unicode="&#x20;" horiz-adv-x="250" d="" />
<glyph glyph-name="zero" unicode="0" horiz-adv-x="700" d="M172 375 Q172 81 351 81 Q529 81 529 375 Q529 516 482.5 592.5 Q436 669 351 669 Q266 669 219 592.5 Q172 516 172 375 Z M56 375 Q56 466 76 537.5 Q96 609 134 658.5 Q172 708 226.5 734 Q281 760 351 760 Q420 760 475 734 Q530 708 567.5 658.5 Q605 609 625 537.5 Q645 466 645 375 Q645 -10 351 -10 Q56 -10 56 375 Z " />
<glyph glyph-name="one" unicode="1" horiz-adv-x="418" d="M106 0 L106 62 L206 62 L206 592 L50 437 L50 573 L231 750 L318 750 L318 62 L418 62 L418 0 L106 0 Z " />
<glyph glyph-name="two" unicode="2" horiz-adv-x="593" d="M49 0 Q49 61 59 105 Q69 149 90 184 Q111 219 145 248.5 Q179 278 227 309 Q274 339 312 366 Q350 393 377.5 420.5 Q405 448 419.5 476.5 Q434 505 433 537 Q433 597 396.5 633 Q360 669 300 669 Q239 669 202 629 Q165 589 165 523 Q165 520 164 521 L57 521 Q57 575 74.5 619 Q92 663 123.5 694.5 Q155 726 200 743 Q245 760 300 760 Q355 760 399.5 744 Q444 728 476 699 Q508 670 525.5 628.5 Q543 587 543 537 Q542 459 492.5 400.5 Q443 342 359 288 Q288 241 245.5 200.5 Q203 160 185 107 L496 107 L496 207 L558 207 L558 0 L49 0 Z " />
<glyph glyph-name="three" unicode="3" horiz-adv-x="599" d="M166 245 Q166 173 202.5 131 Q239 89 302 89 Q362 89 398 122.5 Q434 156 434 213 Q434 279 391.5 318.5 Q349 358 277 358 L217 358 L217 444 L297 444 Q354 444 387.5 474.5 Q421 505 421 556 Q421 607 387.5 638 Q354 669 299 669 Q251 669 222 633.5 Q193 598 193 540 L81 540 Q81 590 97 630.5 Q113 671 142 699.5 Q171 728 212 744 Q253 760 303 760 Q353 760 393.5 746 Q434 732 463 706.5 Q492 681 508 645 Q524 609 524 565 Q524 511 492 469.5 Q460 428 405 408 Q474 383 514 330.5 Q554 278 554 209 Q554 160 536 119.5 Q518 79 485 50.5 Q452 22 405.5 6 Q359 -10 302 -10 Q245 -10 198.5 8.5 Q152 27 119 60.5 Q86 94 68 141 Q50 188 50 245 L166 245 Z " />
<glyph glyph-name="four" unicode="4" horiz-adv-x="595" d="M378 750 L465 750 L465 328 L575 328 L575 229 L465 229 L465 62 L565 62 L565 0 L254 0 L254 62 L354 62 L354 229 L118 229 L25 228 L25 315 L378 750 Z M354 328 L360 599 L138 328 L354 328 Z " />
<glyph glyph-name="five" unicode="5" horiz-adv-x="595" d="M102 750 L462 750 L462 783 L526 783 L526 640 L176 640 L176 465 Q231 485 301 485 Q358 485 405 467 Q452 449 485 416 Q518 383 536.5 337 Q555 291 555 235 Q555 180 537 135 Q519 90 486 57.5 Q453 25 406.5 7.5 Q360 -10 303 -10 Q246 -10 199.5 8.5 Q153 27 120 60.5 Q87 94 69 141 Q51 188 51 245 L167 245 Q167 173 203.5 131 Q240 89 303 89 Q363 89 399 129 Q435 169 435 235 Q435 271 424 300 Q413 329 392.5 350 Q372 371 343.5 382.5 Q315 394 280 394 Q256 394 230 389.5 Q204 385 179.5 377.5 Q155 370 134.5 359 Q114 348 103 336 L102 750 Z " />
<glyph glyph-name="six" unicode="6" horiz-adv-x="615" d="M446 589 Q442 615 431 631.5 Q420 648 407 657 Q394 666 380.5 669.5 Q367 673 358 673 Q316 673 284 653.5 Q252 634 229 598 Q206 562 193 511.5 Q180 461 177 399 Q191 428 210.5 446.5 Q230 465 252 476 Q274 487 297.5 491 Q321 495 343 495 Q396 495 440 477 Q484 459 515 426 Q546 393 563 347 Q580 301 580 245 Q580 188 562 141 Q544 94 510.5 60.5 Q477 27 430.5 8.5 Q384 -10 327 -10 Q60 -10 60 340 Q60 435 79 512 Q98 589 135.5 644.5 Q173 700 229 730 Q285 760 358 760 Q382 760 414 752.5 Q446 745 476 726 Q506 707 530.5 674 Q555 641 565 589 L446 589 Z M322 404 Q264 404 224 385 Q184 366 176 334 Q183 81 327 81 Q357 81 381.5 93 Q406 105 423.5 126.5 Q441 148 450.5 178 Q460 208 460 245 Q460 317 422.5 360.5 Q385 404 322 404 Z " />
<glyph glyph-name="seven" unicode="7" horiz-adv-x="490" d="M30 543 L30 750 L480 750 L480 643 L266 0 L101 0 L448 643 L92 643 L92 543 L30 543 Z " />
<glyph glyph-name="eight" unicode="8" horiz-adv-x="629" d="M193 555 Q193 507 222.5 478.5 Q252 450 318 450 Q375 450 408.5 475.5 Q442 501 442 555 Q442 606 411.5 637.5 Q381 669 318 669 Q261 669 227 640.5 Q193 612 193 555 Z M90 564 Q90 612 106.5 649 Q123 686 153 710.5 Q183 735 225 747.5 Q267 760 318 760 Q432 760 488.5 707 Q545 654 545 564 Q545 501 516 461 Q487 421 433 401 Q506 378 540 326.5 Q574 275 574 202 Q574 147 555.5 107 Q537 67 503.5 41 Q470 15 423 2.5 Q376 -10 318 -10 Q186 -10 123.5 48.5 Q61 107 61 203 Q61 284 99 332.5 Q137 381 203 401 Q145 422 117.5 464 Q90 506 90 564 Z M181 211 Q181 151 213.5 116 Q246 81 318 81 Q381 81 418 112.5 Q455 144 455 213 Q455 276 422.5 313 Q390 350 318 350 Q255 350 218 316.5 Q181 283 181 211 Z " />
<glyph glyph-name="nine" unicode="9" horiz-adv-x="616" d="M188 151 Q193 130 204.5 116 Q216 102 230.5 93.5 Q245 85 261 81 Q277 77 290 77 Q331 77 361.5 99 Q392 121 412.5 161 Q433 201 443 257 Q453 313 453 382 Q426 325 380.5 290 Q335 255 286 255 Q233 255 189 273 Q145 291 114 324 Q83 357 66 403 Q49 449 49 505 Q49 562 67 609 Q85 656 118.5 689.5 Q152 723 198.5 741.5 Q245 760 302 760 Q569 760 569 400 Q569 308 551.5 232.5 Q534 157 498.5 103 Q463 49 411 19.5 Q359 -10 290 -10 Q260 -10 225.5 -1.5 Q191 7 159 26.5 Q127 46 101 76.5 Q75 107 62 151 L188 151 Z M307 346 Q336 346 360.5 355.5 Q385 365 404 379 Q423 393 435 409.5 Q447 426 451 440 Q436 669 302 669 Q272 669 247.5 657 Q223 645 205.5 623.5 Q188 602 178.5 572 Q169 542 169 505 Q169 433 206.5 389.5 Q244 346 307 346 Z " />
<glyph glyph-name="A" unicode="A" horiz-adv-x="825" d="M-12 0 L-12 62 L88 62 L332 688 L256 688 L256 750 L477 750 L741 62 L841 62 L841 0 L545 0 L545 62 L622 62 L558 230 L271 230 L208 62 L284 62 L284 0 L-12 0 Z M539 280 L415 608 L290 280 L539 280 Z " />
<glyph glyph-name="B" unicode="B" horiz-adv-x="745" d="M540 418 Q619 401 664.5 349 Q710 297 710 221 Q710 161 695 119 Q680 77 647 50.5 Q614 24 561.5 12 Q509 0 435 0 L41 0 L41 62 L141 62 L141 688 L41 688 L41 750 L395 750 Q469 750 521.5 739.5 Q574 729 607 706.5 Q640 684 655 647.5 Q670 611 670 560 Q670 509 635.5 472.5 Q601 436 540 418 Z M378 448 Q459 448 506.5 478.5 Q554 509 554 560 Q554 616 519 639.5 Q484 663 400 663 L253 663 L253 448 L378 448 Z M403 87 Q504 87 547 118 Q590 149 590 221 Q590 253 575.5 279.5 Q561 306 535 325 Q509 344 472.5 354 Q436 364 391 364 L253 364 L253 87 L403 87 Z " />
<glyph glyph-name="C" unicode="C" horiz-adv-x="724" d="M589 514 Q588 547 573 574.5 Q558 602 533.5 621.5 Q509 641 476 652 Q443 663 407 663 Q355 663 312.5 640 Q270 617 239.5 577.5 Q209 538 192.5 486 Q176 434 176 375 Q176 317 192.5 264.5 Q209 212 239.5 172.5 Q270 133 312.5 110 Q355 87 407 87 Q488 87 536 126 Q584 165 589 229 L704 229 L704 129 L677 129 Q643 63 573.5 26.5 Q504 -10 407 -10 Q328 -10 263 21 Q198 52 152 104.5 Q106 157 81 227 Q56 297 56 375 Q56 453 81 523 Q106 593 152 645.5 Q198 698 263 729 Q328 760 407 760 Q452 760 493 750 Q534 740 569.5 721 Q605 702 632.5 675 Q660 648 678 614 L704 614 L704 514 L589 514 Z " />
<glyph glyph-name="D" unicode="D" horiz-adv-x="815" d="M41 0 L41 62 L141 62 L141 688 L41 688 L41 750 L370 750 Q760 750 760 375 Q760 184 672 92 Q584 0 400 0 L41 0 Z M399 87 Q523 87 581.5 157 Q640 227 640 375 Q640 663 371 663 L253 663 L253 87 L399 87 Z " />
<glyph glyph-name="E" unicode="E" horiz-adv-x="678" d="M628 0 L41 0 L41 62 L141 62 L141 688 L41 688 L41 750 L613 750 L613 559 L551 559 L551 659 L253 659 L253 430 L543 430 L543 344 L253 344 L253 91 L566 91 L566 191 L628 191 L628 0 Z " />
<glyph glyph-name="F" unicode="F" horiz-adv-x="643" d="M253 659 L253 430 L533 430 L533 344 L253 344 L253 62 L353 62 L353 0 L41 0 L41 62 L141 62 L141 688 L41 688 L41 750 L613 750 L613 559 L551 559 L551 659 L253 659 Z " />
<glyph glyph-name="G" unicode="G" horiz-adv-x="772" d="M727 405 L727 -8 L665 -8 L665 49 Q617 21 564 5.5 Q511 -10 454 -10 Q364 -10 291 17.5 Q218 45 165.5 95.5 Q113 146 84.5 217 Q56 288 56 375 Q56 467 89.5 539 Q123 611 176 661 Q229 711 296 737 Q363 763 429 763 Q505 763 570.5 727 Q636 691 673 616 L702 616 L702 516 L681 509 Q676 547 655.5 577 Q635 607 604 627.5 Q573 648 535 659 Q497 670 456 670 Q405 670 355 653 Q305 636 265.5 600 Q226 564 201 508 Q176 452 176 375 Q176 309 196 255 Q216 201 252.5 162 Q289 123 340 102 Q391 81 454 81 Q499 81 542 99 Q585 117 620 147 L620 369 L374 369 L374 405 L727 405 Z " />
<glyph glyph-name="H" unicode="H" horiz-adv-x="862" d="M515 0 L515 62 L615 62 L615 350 L253 350 L253 62 L353 62 L353 0 L41 0 L41 62 L141 62 L141 688 L41 688 L41 750 L353 750 L353 688 L253 688 L253 440 L615 440 L615 688 L515 688 L515 750 L827 750 L827 688 L727 688 L727 62 L827 62 L827 0 L515 0 Z " />
<glyph glyph-name="I" unicode="I" horiz-adv-x="384" d="M38 0 L38 62 L138 62 L138 688 L38 688 L38 750 L349 750 L349 688 L249 688 L249 62 L349 62 L349 0 L38 0 Z " />
<glyph glyph-name="J" unicode="J" horiz-adv-x="548" d="M164 285 L163 225 Q163 156 185 124.5 Q207 93 258 93 Q304 93 327.5 128 Q351 163 351 220 L351 688 L251 688 L251 750 L563 750 L563 688 L463 688 L463 220 Q463 168 450 125.5 Q437 83 411 53 Q385 23 347 6.5 Q309 -10 258 -10 Q152 -10 103 46 Q54 102 54 225 L53 285 L164 285 Z " />
<glyph glyph-name="K" unicode="K" horiz-adv-x="722" d="M776 62 L776 0 L480 0 L480 62 L544 62 L351 392 L259 294 L259 62 L359 62 L359 0 L47 0 L47 62 L147 62 L147 688 L47 688 L47 750 L359 750 L359 688 L259 688 L259 382 L499 688 L449 688 L449 750 L727 750 L727 688 L627 688 L432 479 L676 62 L776 62 Z " />
<glyph glyph-name="L" unicode="L" horiz-adv-x="708" d="M628 191 L628 0 L92 0 L92 62 L192 62 L192 688 L92 688 L92 750 L403 750 L403 688 L303 688 L303 90 Q308 90 335 90 Q362 90 400.5 90.5 Q439 91 483 91 Q527 91 566 91 L566 191 L628 191 Z " />
<glyph glyph-name="M" unicode="M" horiz-adv-x="988" d="M141 62 Q143 62 143 62.5 Q143 63 144 63 L162 688 L64 688 L64 750 L250 750 L470 128 L732 750 L953 750 L953 688 L853 688 L853 62 L953 62 L953 0 L645 0 L645 62 L745 62 L745 618 L515 0 L415 0 L247 518 L247 62 L350 62 L350 0 L42 0 L42 62 L141 62 Z " />
<glyph glyph-name="N" unicode="N" horiz-adv-x="749" d="M128 62 Q128 110 128.5 148 Q129 186 130 223 Q131 260 132.5 301 Q134 342 135 395.5 Q136 449 136.5 520 Q137 591 137 688 L37 688 L37 750 L287 750 L514 200 L513 688 L394 688 L394 750 L714 750 L714 688 L613 688 L607 0 L473 0 L256 550 L256 62 L357 62 L357 0 L28 0 L28 62 L128 62 Z " />
<glyph glyph-name="O" unicode="O" horiz-adv-x="814" d="M181 375 Q181 311 197.5 258.5 Q214 206 244 168.5 Q274 131 316.5 110.5 Q359 90 410 90 Q461 90 503.5 110.5 Q546 131 576 168.5 Q606 206 622.5 258.5 Q639 311 639 375 Q639 436 621.5 488 Q604 540 573.5 578.5 Q543 617 501 638.5 Q459 660 410 660 Q361 660 319 638.5 Q277 617 246.5 578.5 Q216 540 198.5 488 Q181 436 181 375 Z M61 375 Q61 457 87.5 527.5 Q114 598 161 649.5 Q208 701 271.5 730.5 Q335 760 410 760 Q485 760 548.5 730.5 Q612 701 659 649.5 Q706 598 732.5 527.5 Q759 457 759 375 Q759 288 734 217 Q709 146 663 95.5 Q617 45 552.5 17.5 Q488 -10 410 -10 Q332 -10 267.5 17.5 Q203 45 157 95.5 Q111 146 86 217 Q61 288 61 375 Z " />
<glyph glyph-name="P" unicode="P" horiz-adv-x="674" d="M41 0 L41 62 L141 62 L141 688 L41 688 L41 750 L392 750 Q639 750 639 525 Q639 322 392 322 L253 322 L253 62 L353 62 L353 0 L41 0 Z M393 359 Q459 359 493 396 Q527 433 527 525 Q527 674 391 674 L253 674 L253 359 L393 359 Z " />
<glyph glyph-name="Q" unicode="Q" horiz-adv-x="814" d="M181 375 Q181 293 197.5 228 Q214 163 244 119 Q274 75 316.5 51.5 Q359 28 410 28 Q461 28 503.5 51.5 Q546 75 576 119 Q606 163 622.5 228 Q639 293 639 375 Q639 453 621.5 517 Q604 581 573.5 626.5 Q543 672 501 697 Q459 722 410 722 Q361 722 319 697 Q277 672 246.5 626.5 Q216 581 198.5 517 Q181 453 181 375 Z M61 375 Q61 457 87.5 527.5 Q114 598 161 649.5 Q208 701 271.5 730.5 Q335 760 410 760 Q485 760 548.5 730.5 Q612 701 659 649.5 Q706 598 732.5 527.5 Q759 457 759 375 Q759 297 738.5 231.5 Q718 166 680 116.5 Q642 67 588.5 35.5 Q535 4 469 -6 L469 -103 L691 -103 L691 -207 L351 -207 L351 -6 Q285 4 231.5 35.5 Q178 67 140 116.5 Q102 166 81.5 231.5 Q61 297 61 375 Z " />
<glyph glyph-name="R" unicode="R" horiz-adv-x="724" d="M141 62 L141 688 L41 688 L41 750 L356 750 Q639 750 639 525 Q639 350 376 342 L613 62 L713 62 L713 0 L537 0 L253 336 L253 62 L353 62 L353 0 L41 0 L41 62 L141 62 Z M253 379 L357 379 Q442 379 484.5 411 Q527 443 527 525 Q527 674 355 674 L253 674 L253 379 Z " />
<glyph glyph-name="S" unicode="S" horiz-adv-x="628" d="M593 210 Q593 154 570 111.5 Q547 69 508.5 41 Q470 13 421 -1 Q372 -15 321 -15 Q277 -15 234 -4.5 Q191 6 154 26.5 Q117 47 89.5 78.5 Q62 110 48 152 L32 152 L32 252 L144 251 Q146 208 162.5 176 Q179 144 204 123.5 Q229 103 260.5 93 Q292 83 324 83 Q354 83 382.5 91.5 Q411 100 432.5 115.5 Q454 131 467.5 154 Q481 177 481 207 Q481 255 443 286.5 Q405 318 327 327 Q193 346 127 402.5 Q61 459 61 550 Q61 603 84 642.5 Q107 682 144.5 708.5 Q182 735 230 748.5 Q278 762 327 762 Q366 762 404.5 753.5 Q443 745 476 728.5 Q509 712 535 686.5 Q561 661 575 627 L594 627 L594 527 L481 528 Q483 564 471.5 590 Q460 616 440.5 632.5 Q421 649 394.5 656.5 Q368 664 340 664 Q310 664 280.5 655.5 Q251 647 228 632 Q205 617 190.5 595 Q176 573 176 546 Q176 461 350 437 Q471 420 532 362 Q593 304 593 210 Z " />
<glyph glyph-name="T" unicode="T" horiz-adv-x="595" d="M142 0 L142 62 L242 62 L242 692 L72 692 L72 614 L10 614 L10 750 L585 750 L585 614 L523 614 L523 692 L353 692 L353 62 L453 62 L453 0 L142 0 Z " />
<glyph glyph-name="U" unicode="U" horiz-adv-x="815" d="M34 688 L34 750 L346 750 L346 688 L246 688 L246 310 Q246 237 256.5 185.5 Q267 134 287.5 102 Q308 70 339 55.5 Q370 41 410 41 Q450 41 480 54.5 Q510 68 530.5 98.5 Q551 129 561 178 Q571 227 571 298 L573 688 L473 688 L473 750 L785 750 L785 688 L685 688 L686 294 Q686 -10 410 -10 Q134 -10 134 290 L134 688 L34 688 Z " />
<glyph glyph-name="V" unicode="V" horiz-adv-x="815" d="M336 750 L336 688 L255 688 L431 101 Q443 154 459 226 Q475 298 493.5 377.5 Q512 457 531 537.5 Q550 618 568 688 L485 688 L485 750 L785 750 L785 688 L686 688 Q633 514 579 343 Q525 172 466 0 L359 0 L136 688 L36 688 L36 750 L336 750 Z " />
<glyph glyph-name="W" unicode="W" horiz-adv-x="1005" d="M29 688 L29 750 L336 750 L336 688 L248 688 L347 169 L452 750 L559 750 L694 173 L766 688 L675 688 L675 750 L982 750 L982 688 L882 688 L735 0 L628 0 L505 525 L379 0 L271 0 L129 688 L29 688 Z " />
<glyph glyph-name="X" unicode="X" horiz-adv-x="817" d="M59 0 L59 62 L160 62 L363 390 L192 688 L91 688 L91 750 L372 750 L372 688 L308 688 L423 486 L548 688 L487 688 L487 750 L774 750 L774 688 L673 688 L483 382 L666 62 L767 62 L767 0 L487 0 L487 62 L551 62 L423 285 L285 62 L346 62 L346 0 L59 0 Z " />
<glyph glyph-name="Y" unicode="Y" horiz-adv-x="723" d="M6 688 L6 750 L283 750 L283 688 L218 688 L367 424 L516 688 L451 688 L451 750 L728 750 L728 688 L628 688 L423 330 L423 62 L523 62 L523 0 L211 0 L211 62 L311 62 L311 330 L106 688 L6 688 Z " />
<glyph glyph-name="Z" unicode="Z" horiz-adv-x="655" d="M45 0 L45 91 L474 669 L122 669 L122 608 L60 608 L60 750 L610 750 L610 659 L182 91 L548 91 L548 191 L610 191 L610 0 L45 0 Z " />
<glyph glyph-name="a" unicode="a" horiz-adv-x="608" d="M266 530 Q329 530 371 483 Q413 436 430 355 L430 520 L530 520 L530 0 L430 0 L430 165 Q413 84 371 37 Q329 -10 266 -10 Q218 -10 179 9.5 Q140 29 112.5 64.5 Q85 100 69.5 149.5 Q54 199 54 260 Q54 321 69.5 370.5 Q85 420 112.5 455.5 Q140 491 179 510.5 Q218 530 266 530 Z M299 72 Q359 72 394.5 123.5 Q430 175 430 260 Q430 345 394.5 396.5 Q359 448 299 448 Q236 448 199.5 396.5 Q163 345 163 260 Q163 175 199.5 123.5 Q236 72 299 72 Z " />
<glyph glyph-name="b" unicode="b" horiz-adv-x="595" d="M-30 688 L-30 750 L170 750 L170 360 Q187 448 235.5 489 Q284 530 353 530 Q396 530 431.5 510.5 Q467 491 492 455.5 Q517 420 531 370.5 Q545 321 545 260 Q545 199 531 149.5 Q517 100 492 64.5 Q467 29 431.5 9.5 Q396 -10 353 -10 Q284 -10 235.5 31 Q187 72 170 160 L170 0 L70 0 L70 688 L-30 688 Z M319 72 Q373 72 404.5 123.5 Q436 175 436 260 Q436 345 404.5 396.5 Q373 448 319 448 Q252 448 211 403 Q170 358 170 260 Q170 162 211 117 Q252 72 319 72 Z " />
<glyph glyph-name="c" unicode="c" horiz-adv-x="557" d="M464 548 L528 548 L526 323 L427 322 Q423 382 391 417 Q359 452 305 452 Q277 452 251 440.5 Q225 429 205.5 405.5 Q186 382 174.5 346 Q163 310 163 260 Q163 212 174.5 176.5 Q186 141 204.5 118 Q223 95 248 84 Q273 73 300 73 Q325 73 348 82.5 Q371 92 388.5 109 Q406 126 416.5 150 Q427 174 427 203 L477 203 L477 204 L527 204 L527 104 L502 104 Q473 50 419.5 20 Q366 -10 300 -10 Q251 -10 206.5 6 Q162 22 128 55 Q94 88 74 139 Q54 190 54 260 Q54 330 74 381 Q94 432 128.5 465 Q163 498 208.5 514 Q254 530 305 530 Q356 530 395.5 515 Q435 500 464 472 L464 548 Z " />
<glyph glyph-name="d" unicode="d" horiz-adv-x="620" d="M257 530 Q330 530 381 482 Q432 434 450 349 L450 688 L350 688 L350 750 L550 750 L550 0 L450 0 L450 171 Q432 86 381 38 Q330 -10 257 -10 Q211 -10 173.5 9.5 Q136 29 109.5 64.5 Q83 100 68.5 149.5 Q54 199 54 260 Q54 321 68.5 370.5 Q83 420 109.5 455.5 Q136 491 173.5 510.5 Q211 530 257 530 Z M163 260 Q163 218 172 183 Q181 148 198 123.5 Q215 99 238.5 85.5 Q262 72 290 72 Q326 72 355.5 85.5 Q385 99 406 123.5 Q427 148 438.5 183 Q450 218 450 260 Q450 302 438.5 337 Q427 372 406 396.5 Q385 421 355.5 434.5 Q326 448 290 448 Q262 448 238.5 434.5 Q215 421 198 396.5 Q181 372 172 337 Q163 302 163 260 Z " />
<glyph glyph-name="e" unicode="e" horiz-adv-x="563" d="M533 184 Q533 141 514 105 Q495 69 463 43.5 Q431 18 389 4 Q347 -10 300 -10 Q251 -10 206 6 Q161 22 127.5 55 Q94 88 74 139 Q54 190 54 260 Q54 330 73.5 381 Q93 432 126.5 465 Q160 498 205 514 Q250 530 301 530 Q359 530 403 509.5 Q447 489 477 452.5 Q507 416 522 365.5 Q537 315 537 256 L163 256 Q163 209 174.5 174.5 Q186 140 205 117.5 Q224 95 248.5 84 Q273 73 300 73 Q326 73 350 81 Q374 89 392.5 103 Q411 117 422 137.5 Q433 158 433 182 L533 184 Z M435 293 Q428 363 394.5 407.5 Q361 452 301 452 Q249 452 210.5 413.5 Q172 375 164 292 L435 293 Z " />
<glyph glyph-name="f" unicode="f" horiz-adv-x="432" d="M240 704 L240 520 L452 520 L452 474 L240 474 L240 62 L340 62 L340 0 L40 0 L40 62 L140 62 L140 474 L30 474 L30 520 L140 520 L140 750 L452 750 L452 634 L390 634 L390 704 L240 704 Z " />
<glyph glyph-name="g" unicode="g" horiz-adv-x="610" d="M272 530 Q335 530 379 484.5 Q423 439 440 361 L440 520 L640 520 L640 458 L540 458 L540 42 Q540 -11 526 -55 Q512 -99 483.5 -130 Q455 -161 413 -178 Q371 -195 314 -195 Q248 -195 202.5 -184.5 Q157 -174 128.5 -152 Q100 -130 85.5 -96 Q71 -62 66 -14 L167 -16 Q176 -42 186 -60.5 Q196 -79 212 -91 Q228 -103 252.5 -109 Q277 -115 314 -115 Q375 -115 407.5 -83.5 Q440 -52 440 0 L440 182 Q423 107 379.5 63.5 Q336 20 273 20 Q224 20 183.5 34 Q143 48 114.5 78 Q86 108 70 155.5 Q54 203 54 270 Q54 340 69.5 389.5 Q85 439 113.5 470 Q142 501 182.5 515.5 Q223 530 272 530 Z M163 270 Q163 179 196 140.5 Q229 102 282 102 Q318 102 347 114 Q376 126 396.5 148 Q417 170 428.5 201 Q440 232 440 270 Q440 351 396.5 399.5 Q353 448 281 448 Q228 448 195.5 407 Q163 366 163 270 Z " />
<glyph glyph-name="h" unicode="h" horiz-adv-x="636" d="M331 0 L331 62 L421 62 L421 437 L215 437 L215 62 L305 62 L305 0 L25 0 L25 62 L115 62 L115 688 L15 688 L15 750 L215 750 L215 520 L521 520 L521 62 L611 62 L611 0 L331 0 Z " />
<glyph glyph-name="i" unicode="i" horiz-adv-x="287" d="M113 709 L221 709 L221 600 L113 600 L113 709 Z M17 0 L17 62 L117 62 L117 458 L17 458 L17 520 L217 520 L217 62 L317 62 L317 0 L17 0 Z " />
<glyph glyph-name="j" unicode="j" horiz-adv-x="290" d="M116 709 L224 709 L224 600 L116 600 L116 709 Z M220 520 L220 -92 L35 -92 L35 -45 L120 -45 L120 458 L20 458 L20 520 L220 520 Z " />
<glyph glyph-name="k" unicode="k" horiz-adv-x="555" d="M102 62 L102 688 L2 688 L2 750 L202 750 L202 324 L372 520 L534 520 L534 458 L433 458 L329 350 L481 62 L581 62 L581 0 L393 0 L252 270 L202 218 L202 62 L302 62 L302 0 L2 0 L2 62 L102 62 Z " />
<glyph glyph-name="l" unicode="l" horiz-adv-x="447" d="M77 0 L77 62 L177 62 L177 688 L77 688 L77 750 L277 750 L277 62 L377 62 L377 0 L77 0 Z " />
<glyph glyph-name="m" unicode="m" horiz-adv-x="785" d="M770 62 L770 0 L522 0 L522 62 L570 62 L570 425 L443 425 L443 62 L500 62 L500 0 L285 0 L285 62 L343 62 L343 425 L215 425 L215 62 L264 62 L264 0 L15 0 L15 62 L115 62 L115 458 L15 458 L15 520 L670 520 L670 62 L770 62 Z " />
<glyph glyph-name="n" unicode="n" horiz-adv-x="703" d="M395 0 L395 62 L488 62 L488 425 L282 425 L282 62 L377 62 L377 0 L89 0 L89 62 L182 62 L182 458 L82 458 L82 520 L588 520 L588 62 L684 62 L684 0 L395 0 Z " />
<glyph glyph-name="o" unicode="o" horiz-adv-x="590" d="M163 260 Q163 169 195.5 115.5 Q228 62 297 62 Q357 62 394 109.5 Q431 157 431 260 Q431 351 398.5 404.5 Q366 458 297 458 Q237 458 200 410.5 Q163 363 163 260 Z M54 260 Q54 330 71.5 381 Q89 432 121 465 Q153 498 197.5 514 Q242 530 297 530 Q360 530 406 510.5 Q452 491 481.5 455.5 Q511 420 525.5 370.5 Q540 321 540 260 Q540 190 522.5 139 Q505 88 473 55 Q441 22 396.5 6 Q352 -10 297 -10 Q234 -10 188 9.5 Q142 29 112.5 64.5 Q83 100 68.5 149.5 Q54 199 54 260 Z " />
<glyph glyph-name="p" unicode="p" horiz-adv-x="695" d="M70 458 L70 520 L270 520 L270 360 Q287 448 335.5 489 Q384 530 453 530 Q496 530 531.5 510.5 Q567 491 592 455.5 Q617 420 631 370.5 Q645 321 645 260 Q645 199 631 149.5 Q617 100 592 64.5 Q567 29 531.5 9.5 Q496 -10 453 -10 Q384 -10 335.5 31 Q287 72 270 160 L270 -93 L370 -93 L370 -155 L70 -155 L70 -93 L170 -93 L170 458 L70 458 Z M270 260 Q270 162 311 117 Q352 72 419 72 Q473 72 504.5 123.5 Q536 175 536 260 Q536 345 504.5 396.5 Q473 448 419 448 Q352 448 311 403 Q270 358 270 260 Z " />
<glyph glyph-name="q" unicode="q" horiz-adv-x="670" d="M54 260 Q54 321 68.5 370.5 Q83 420 109.5 455.5 Q136 491 173.5 510.5 Q211 530 257 530 Q330 530 381 482 Q432 434 450 349 L450 520 L650 520 L650 458 L550 458 L550 -93 L650 -93 L650 -155 L350 -155 L350 -93 L450 -93 L450 171 Q432 86 381 38 Q330 -10 257 -10 Q211 -10 173.5 9.5 Q136 29 109.5 64.5 Q83 100 68.5 149.5 Q54 199 54 260 Z M290 72 Q326 72 355.5 85.5 Q385 99 406 123.5 Q427 148 438.5 183 Q450 218 450 260 Q450 302 438.5 337 Q427 372 406 396.5 Q385 421 355.5 434.5 Q326 448 290 448 Q262 448 238.5 434.5 Q215 421 198 396.5 Q181 372 172 337 Q163 302 163 260 Q163 218 172 183 Q181 148 198 123.5 Q215 99 238.5 85.5 Q262 72 290 72 Z " />
<glyph glyph-name="r" unicode="r" horiz-adv-x="409" d="M389 437 L220 437 L220 62 L320 62 L320 0 L20 0 L20 62 L120 62 L120 458 L20 458 L20 520 L389 520 L389 437 Z " />
<glyph glyph-name="s" unicode="s" horiz-adv-x="472" d="M31 75 L31 175 L119 176 Q119 119 153 96 Q187 73 244 73 Q292 73 320.5 93 Q349 113 349 146 Q349 173 321.5 194.5 Q294 216 237 224 Q144 238 98 280 Q52 322 52 379 Q52 412 65.5 439 Q79 466 104 485 Q129 504 164 514.5 Q199 525 241 525 Q286 525 322.5 514 Q359 503 384 477 L384 562 L429 562 L429 352 L344 353 Q342 407 314 429 Q286 451 241 451 Q199 451 173.5 432.5 Q148 414 148 384 Q148 323 246 306 Q343 291 391.5 248.5 Q440 206 440 149 Q440 115 426 86.5 Q412 58 386.5 37.5 Q361 17 324.5 6 Q288 -5 244 -5 Q178 -5 129.5 13.5 Q81 32 55 75 L31 75 Z " />
<glyph glyph-name="t" unicode="t" horiz-adv-x="365" d="M335 442 L233 442 L233 78 L335 78 L335 0 L133 0 L133 442 L30 442 L30 520 L133 520 L133 655 L233 655 L233 520 L335 520 L335 442 Z " />
<glyph glyph-name="u" unicode="u" horiz-adv-x="636" d="M115 0 L115 458 L15 458 L15 520 L215 520 L215 82 L421 82 L421 458 L321 458 L321 520 L521 520 L521 62 L621 62 L621 0 L115 0 Z " />
<glyph glyph-name="v" unicode="v" horiz-adv-x="590" d="M277 520 L277 458 L195 458 L306 71 L402 458 L317 458 L317 520 L606 520 L606 458 L506 458 L331 0 L240 0 L85 458 L-15 458 L-15 520 L277 520 Z " />
<glyph glyph-name="w" unicode="w" horiz-adv-x="846" d="M-19 520 L270 520 L270 458 L184 458 L276 66 L371 520 L458 520 L577 69 L648 458 L559 458 L559 520 L846 520 L846 458 L746 458 L599 0 L516 0 L412 373 L295 0 L213 0 L81 458 L-19 458 L-19 520 Z " />
<glyph glyph-name="x" unicode="x" horiz-adv-x="564" d="M567 62 L567 0 L297 0 L297 62 L372 62 Q349 94 323 130 Q297 166 271 203 L165 62 L218 62 L218 0 L-62 0 L-62 62 L39 62 L210 290 Q175 339 145 382.5 Q115 426 92 458 L-7 458 L-7 520 L283 520 L283 458 L194 458 Q208 438 225 412.5 Q242 387 262 358 L337 458 L284 458 L284 520 L564 520 L564 458 L463 458 L321 270 Q357 216 394 163 Q431 110 465 62 L567 62 Z " />
<glyph glyph-name="y" unicode="y" horiz-adv-x="590" d="M-15 520 L277 520 L277 458 L195 458 L293 123 L398 458 L317 458 L317 520 L611 520 L611 458 L511 458 L290 -250 L177 -250 L247 -23 L85 458 L-15 458 L-15 520 Z " />
<glyph glyph-name="z" unicode="z" horiz-adv-x="460" d="M378 178 L440 178 L440 0 L30 0 L30 12 L283 457 L107 457 L107 350 L45 350 L45 520 L424 520 L424 508 L178 77 L378 78 L378 178 Z " />
</font>
</svg>
