<?xml version="1.0" encoding="UTF-8"?>
<svg xmlns="http://www.w3.org/2000/svg" xmlns:xlink="http://www.w3.org/1999/xlink" version="1.2" >
<font id="Basel-Regular-Demo">
<font-face  font-family="Basel" units-per-em="1024" ascent="975" descent="-300" font-style="normal" font-weight="400" font-stretch="normal" cap-height="1000" x-height="488" underline-position="-125" underline-thickness="50" />
<missing-glyph  horiz-adv-x="512" d="" />
<glyph glyph-name="space" unicode="&#x20;" horiz-adv-x="250" d="" />
<glyph glyph-name="zero" unicode="0" horiz-adv-x="700" d="M131 375 Q131 39 358 39 Q584 39 584 375 Q584 455 568.5 517 Q553 579 524 622.5 Q495 666 453 688.5 Q411 711 358 711 Q249 711 190 623.5 Q131 536 131 375 Z M70 375 Q70 466 89.5 537.5 Q109 609 146 658.5 Q183 708 236.5 734 Q290 760 358 760 Q426 760 479.5 734 Q533 708 569.5 658.5 Q606 609 625.5 537.5 Q645 466 645 375 Q645 -10 358 -10 Q70 -10 70 375 Z " />
<glyph glyph-name="one" unicode="1" horiz-adv-x="379" d="M119 0 L119 62 L219 62 L219 664 L50 484 L50 557 L233 750 L279 750 L279 62 L379 62 L379 0 L119 0 Z " />
<glyph glyph-name="two" unicode="2" horiz-adv-x="581" d="M63 0 Q63 48 74.5 86.5 Q86 125 110.5 160.5 Q135 196 174.5 231 Q214 266 270 307 Q315 341 352.5 370 Q390 399 417 426 Q444 453 458.5 480 Q473 507 472 537 Q472 576 460 608 Q448 640 426.5 663 Q405 686 375 698.5 Q345 711 308 711 Q270 711 239 697.5 Q208 684 186.5 659 Q165 634 153 599 Q141 564 141 521 L84 521 Q84 575 100 619 Q116 663 145.5 694.5 Q175 726 216 743 Q257 760 308 760 Q358 760 399.5 744 Q441 728 470 699 Q499 670 515 628.5 Q531 587 531 537 Q531 504 517.5 474.5 Q504 445 479 415.5 Q454 386 419 357 Q384 328 341 296 Q293 261 257.5 231 Q222 201 196.5 172.5 Q171 144 155.5 116 Q140 88 133 57 L484 57 L484 157 L546 157 L546 0 L63 0 Z " />
<glyph glyph-name="three" unicode="3" horiz-adv-x="599" d="M125 245 Q125 200 138.5 162.5 Q152 125 176 98.5 Q200 72 234 57.5 Q268 43 309 43 Q350 43 383.5 55 Q417 67 440.5 89.5 Q464 112 477 143 Q490 174 490 212 Q490 250 475.5 281.5 Q461 313 434 335.5 Q407 358 369 370 Q331 382 284 382 L224 382 L224 428 L304 428 Q342 428 372.5 437.5 Q403 447 425 464 Q447 481 459 505 Q471 529 471 559 Q471 628 429 669.5 Q387 711 315 711 Q249 711 208.5 664.5 Q168 618 168 540 L108 540 Q108 590 123 630.5 Q138 671 165.5 699.5 Q193 728 231.5 744 Q270 760 317 760 Q364 760 402.5 746 Q441 732 468.5 706.5 Q496 681 511 644.5 Q526 608 526 564 Q526 504 484 463 Q442 422 370 408 Q412 399 446 380.5 Q480 362 504 335.5 Q528 309 541 277 Q554 245 554 209 Q554 160 536.5 119.5 Q519 79 486.5 50.5 Q454 22 409 6 Q364 -10 309 -10 Q254 -10 209 8.5 Q164 27 131.5 60.5 Q99 94 81.5 141 Q64 188 64 245 L125 245 Z " />
<glyph glyph-name="four" unicode="4" horiz-adv-x="595" d="M406 750 L452 750 L452 322 L575 322 L575 269 L452 269 L452 62 L552 62 L552 0 L293 0 L293 62 L393 62 L393 269 L25 269 L25 315 L406 750 Z M393 322 L393 553 L401 680 L86 322 L393 322 Z " />
<glyph glyph-name="five" unicode="5" horiz-adv-x="595" d="M177 429 Q210 450 250 462 Q290 474 332 474 Q382 474 423.5 457 Q465 440 494 408.5 Q523 377 539 333 Q555 289 555 235 Q555 180 537.5 135 Q520 90 487.5 57.5 Q455 25 410 7.5 Q365 -10 310 -10 Q255 -10 210 8.5 Q165 27 132.5 60.5 Q100 94 82.5 141 Q65 188 65 245 L126 245 Q126 200 139.5 162.5 Q153 125 177 98.5 Q201 72 235 57.5 Q269 43 310 43 Q351 43 384.5 57 Q418 71 441.5 96 Q465 121 478 156.5 Q491 192 491 235 Q491 279 479 314 Q467 349 444.5 374 Q422 399 390.5 412.5 Q359 426 321 426 Q296 426 267.5 419 Q239 412 212 400 Q185 388 160.5 371.5 Q136 355 119 336 L117 750 L476 750 L476 783 L540 783 L540 691 L176 691 L177 429 Z " />
<glyph glyph-name="six" unicode="6" horiz-adv-x="615" d="M501 589 Q492 625 475 649 Q458 673 438 687.5 Q418 702 398 708 Q378 714 364 714 Q310 714 269 690.5 Q228 667 199.5 624 Q171 581 155 520.5 Q139 460 136 385 Q151 415 174.5 434 Q198 453 226.5 464 Q255 475 288 479.5 Q321 484 355 484 Q406 484 447.5 467 Q489 450 518.5 418.5 Q548 387 564 343 Q580 299 580 245 Q580 188 562.5 141 Q545 94 513 60.5 Q481 27 436.5 8.5 Q392 -10 337 -10 Q74 -10 74 342 Q74 436 92.5 513 Q111 590 147.5 645 Q184 700 238 730 Q292 760 364 760 Q387 760 417.5 752.5 Q448 745 477.5 726 Q507 707 531 674 Q555 641 565 589 L501 589 Z M344 436 Q308 436 275 428.5 Q242 421 214.5 407.5 Q187 394 166.5 374.5 Q146 355 135 332 Q143 39 337 39 Q377 39 410 54 Q443 69 466.5 96 Q490 123 503 161 Q516 199 516 245 Q516 289 503.5 324 Q491 359 468.5 384 Q446 409 414.5 422.5 Q383 436 344 436 Z " />
<glyph glyph-name="seven" unicode="7" horiz-adv-x="490" d="M480 750 L480 693 L246 0 L155 0 L455 693 L92 693 L92 593 L30 593 L30 750 L480 750 Z " />
<glyph glyph-name="eight" unicode="8" horiz-adv-x="629" d="M157 558 Q157 499 197.5 463 Q238 427 325 427 Q400 427 445 458 Q490 489 490 558 Q490 627 448.5 669 Q407 711 325 711 Q249 711 203 672.5 Q157 634 157 558 Z M102 563 Q102 612 118 649 Q134 686 163.5 710.5 Q193 735 234 747.5 Q275 760 325 760 Q434 760 489.5 706.5 Q545 653 545 563 Q545 494 510 455 Q475 416 412 400 Q496 383 535 331 Q574 279 574 204 Q574 149 556 108.5 Q538 68 505.5 41.5 Q473 15 427 2.5 Q381 -10 325 -10 Q261 -10 213.5 5.5 Q166 21 135.5 49 Q105 77 90 116.5 Q75 156 75 204 Q75 288 118.5 335.5 Q162 383 237 400 Q167 417 134.5 459.5 Q102 502 102 563 Z M139 208 Q139 132 184 85.5 Q229 39 325 39 Q408 39 459 80 Q510 121 510 209 Q510 283 465.5 328.5 Q421 374 325 374 Q241 374 190 334 Q139 294 139 208 Z " />
<glyph glyph-name="nine" unicode="9" horiz-adv-x="615" d="M130 151 Q141 121 159 99.5 Q177 78 198 63.5 Q219 49 241.5 42.5 Q264 36 284 36 Q337 36 376.5 62 Q416 88 442.5 135.5 Q469 183 482 249 Q495 315 494 395 Q481 366 458.5 342.5 Q436 319 407 302 Q378 285 344 275.5 Q310 266 274 266 Q223 266 181.5 283 Q140 300 110.5 331.5 Q81 363 65 407 Q49 451 49 505 Q49 562 66.5 609 Q84 656 116 689.5 Q148 723 192.5 741.5 Q237 760 292 760 Q555 760 555 398 Q555 307 538 231.5 Q521 156 487 102.5 Q453 49 402.5 19.5 Q352 -10 284 -10 Q256 -10 222.5 -1.5 Q189 7 158 26.5 Q127 46 101.5 76.5 Q76 107 63 151 L130 151 Z M285 314 Q322 314 355 326 Q388 338 415 356.5 Q442 375 462 397.5 Q482 420 492 441 Q475 711 292 711 Q252 711 219 696.5 Q186 682 162.5 655 Q139 628 126 590 Q113 552 113 505 Q113 462 125.5 426.5 Q138 391 160.5 366 Q183 341 214.5 327.5 Q246 314 285 314 Z " />
<glyph glyph-name="A" unicode="A" horiz-adv-x="825" d="M4 62 L104 62 L364 688 L290 688 L290 750 L455 750 L739 62 L840 62 L840 0 L601 0 L601 62 L676 62 L597 254 L247 254 L168 62 L242 62 L242 0 L4 0 L4 62 Z M257 280 L586 280 L422 679 L257 280 Z " />
<glyph glyph-name="B" unicode="B" horiz-adv-x="744" d="M513 417 Q558 411 594 394.5 Q630 378 655.5 352.5 Q681 327 695 293.5 Q709 260 709 221 Q709 161 694 119 Q679 77 646 50.5 Q613 24 560.5 12 Q508 0 434 0 L54 0 L54 62 L154 62 L154 688 L54 688 L54 750 L394 750 Q468 750 520.5 739.5 Q573 729 606 706.5 Q639 684 654 647.5 Q669 611 669 560 Q669 506 627 469 Q585 432 513 417 Z M394 432 Q442 432 481.5 441 Q521 450 549 467 Q577 484 592.5 507.5 Q608 531 608 560 Q608 599 596.5 626.5 Q585 654 559.5 671 Q534 688 493.5 696 Q453 704 396 704 L214 704 L214 432 L394 432 Z M417 46 Q479 46 522 55.5 Q565 65 592.5 86 Q620 107 632.5 140.5 Q645 174 645 221 Q645 259 629 289.5 Q613 320 584 341.5 Q555 363 514.5 375 Q474 387 424 387 L214 387 L214 46 L417 46 Z " />
<glyph glyph-name="C" unicode="C" horiz-adv-x="724" d="M643 514 Q641 558 622 593.5 Q603 629 572 654.5 Q541 680 500 694 Q459 708 413 708 Q350 708 299 681.5 Q248 655 211 609 Q174 563 154 503 Q134 443 134 375 Q134 308 154 247.5 Q174 187 211 141 Q248 95 299 68.5 Q350 42 413 42 Q463 42 504 55.5 Q545 69 575 93.5 Q605 118 622.5 152.5 Q640 187 643 229 L704 229 L704 129 L677 129 Q644 63 576.5 26.5 Q509 -10 413 -10 Q336 -10 272.5 21 Q209 52 164 104.5 Q119 157 94.5 227 Q70 297 70 375 Q70 453 94.5 523 Q119 593 164 645.5 Q209 698 272.5 729 Q336 760 413 760 Q457 760 497 750 Q537 740 571.5 721.5 Q606 703 633 676 Q660 649 678 614 L704 614 L704 514 L643 514 Z " />
<glyph glyph-name="D" unicode="D" horiz-adv-x="814" d="M54 0 L54 62 L154 62 L154 688 L54 688 L54 750 L369 750 Q759 750 759 375 Q759 184 671 92 Q583 0 399 0 L54 0 Z M398 47 Q550 47 622.5 127.5 Q695 208 695 375 Q695 703 370 703 L214 703 L214 47 L398 47 Z " />
<glyph glyph-name="E" unicode="E" horiz-adv-x="639" d="M589 0 L54 0 L54 62 L154 62 L154 688 L54 688 L54 750 L574 750 L574 601 L512 601 L512 701 L214 701 L214 410 L504 410 L504 364 L214 364 L214 49 L527 49 L527 149 L589 149 L589 0 Z " />
<glyph glyph-name="F" unicode="F" horiz-adv-x="604" d="M214 701 L214 410 L494 410 L494 364 L214 364 L214 62 L314 62 L314 0 L54 0 L54 62 L154 62 L154 688 L54 688 L54 750 L574 750 L574 601 L512 601 L512 701 L214 701 Z " />
<glyph glyph-name="G" unicode="G" horiz-adv-x="773" d="M728 401 L728 -1 L666 -1 L666 55 Q615 25 558.5 7.5 Q502 -10 442 -10 Q358 -10 289.5 17.5 Q221 45 172.5 95.5 Q124 146 97 217 Q70 288 70 375 Q70 462 97 533 Q124 604 172.5 654.5 Q221 705 289.5 732.5 Q358 760 442 760 Q520 760 581 722 Q642 684 675 615 L705 615 L705 515 L704 515 Q703 515 702 514 Q701 514 700 513 L694 511 Q688 556 667 593 Q646 630 613 656 Q580 682 536.5 696.5 Q493 711 442 711 Q373 711 316 687 Q259 663 218.5 619 Q178 575 156 513 Q134 451 134 375 Q134 299 156 237 Q178 175 218.5 131 Q259 87 316 63 Q373 39 442 39 Q503 39 563 63.5 Q623 88 671 128 L671 373 L373 373 L373 401 L728 401 Z " />
<glyph glyph-name="H" unicode="H" horiz-adv-x="810" d="M515 0 L515 62 L615 62 L615 371 L214 371 L214 62 L314 62 L314 0 L54 0 L54 62 L154 62 L154 688 L54 688 L54 750 L314 750 L314 688 L214 688 L214 419 L615 419 L615 688 L515 688 L515 750 L775 750 L775 688 L675 688 L675 62 L775 62 L775 0 L515 0 Z " />
<glyph glyph-name="I" unicode="I" horiz-adv-x="331" d="M36 0 L36 62 L136 62 L136 688 L36 688 L36 750 L296 750 L296 688 L196 688 L196 62 L296 62 L296 0 L36 0 Z " />
<glyph glyph-name="J" unicode="J" horiz-adv-x="496" d="M125 285 L125 225 Q125 131 152 88 Q179 45 239 45 Q296 45 323.5 93 Q351 141 351 220 L351 688 L251 688 L251 750 L511 750 L511 688 L411 688 L411 220 Q411 168 400 125.5 Q389 83 367.5 53 Q346 23 314 6.5 Q282 -10 239 -10 Q148 -10 107 46 Q66 102 66 225 L66 285 L125 285 Z " />
<glyph glyph-name="K" unicode="K" horiz-adv-x="668" d="M60 688 L60 750 L320 750 L320 688 L220 688 L220 345 Q258 388 293.5 432.5 Q329 477 364 522 Q380 542 395 562.5 Q410 583 426 603 Q441 623 457.5 644 Q474 665 492 688 L442 688 L442 750 L663 750 L663 688 L562 688 L377 470 L621 62 L721 62 L721 0 L487 0 L487 62 L550 62 L335 421 L220 286 L220 62 L320 62 L320 0 L60 0 L60 62 L160 62 L160 688 L60 688 Z " />
<glyph glyph-name="L" unicode="L" horiz-adv-x="601" d="M521 0 L36 0 L36 62 L136 62 L136 688 L36 688 L36 750 L296 750 L296 688 L196 688 L196 67 L457 67 L457 149 L521 149 L521 0 Z " />
<glyph glyph-name="M" unicode="M" horiz-adv-x="937" d="M55 0 L55 62 L156 62 L165 688 L66 688 L66 750 L214 750 L463 69 L738 750 L902 750 L902 688 L802 688 L802 62 L902 62 L902 0 L645 0 L645 62 L745 62 L745 636 L488 0 L435 0 L211 602 L212 62 L312 62 L312 0 L55 0 Z " />
<glyph glyph-name="N" unicode="N" horiz-adv-x="726" d="M232 750 L523 139 L523 688 L423 688 L423 750 L691 750 L691 688 L591 688 L594 0 L523 0 L217 609 Q217 473 217.5 331 Q218 189 218 62 L318 62 L318 0 L41 0 L41 62 L141 62 L141 302 Q140 322 140 345.5 Q140 369 140 396 L140 688 L40 688 L40 750 L232 750 Z " />
<glyph glyph-name="O" unicode="O" horiz-adv-x="814" d="M139 375 Q139 300 159 239 Q179 178 215.5 134.5 Q252 91 303 67 Q354 43 417 43 Q480 43 531 67 Q582 91 618.5 134.5 Q655 178 675 239 Q695 300 695 375 Q695 446 674 506.5 Q653 567 615.5 611.5 Q578 656 527 681.5 Q476 707 417 707 Q358 707 307 681.5 Q256 656 218.5 611.5 Q181 567 160 506.5 Q139 446 139 375 Z M75 375 Q75 457 101 527.5 Q127 598 173 649.5 Q219 701 281.5 730.5 Q344 760 417 760 Q490 760 552.5 730.5 Q615 701 661 649.5 Q707 598 733 527.5 Q759 457 759 375 Q759 288 734.5 217 Q710 146 665 95.5 Q620 45 557 17.5 Q494 -10 417 -10 Q340 -10 277 17.5 Q214 45 169 95.5 Q124 146 99.5 217 Q75 288 75 375 Z " />
<glyph glyph-name="P" unicode="P" horiz-adv-x="674" d="M54 0 L54 62 L154 62 L154 688 L54 688 L54 750 L444 750 Q639 750 639 525 Q639 324 444 324 L214 324 L214 62 L314 62 L314 0 L54 0 Z M445 353 Q511 353 545 391.5 Q579 430 579 525 Q579 710 443 710 L214 710 L214 353 L445 353 Z " />
<glyph glyph-name="Q" unicode="Q" horiz-adv-x="814" d="M139 375 Q139 291 159 225 Q179 159 215.5 113.5 Q252 68 303 44 Q354 20 417 20 Q480 20 531 44 Q582 68 618.5 113.5 Q655 159 675 225 Q695 291 695 375 Q695 455 674 520.5 Q653 586 615.5 632.5 Q578 679 527 704.5 Q476 730 417 730 Q358 730 307 704.5 Q256 679 218.5 632.5 Q181 586 160 520.5 Q139 455 139 375 Z M75 375 Q75 457 101 527.5 Q127 598 173 649.5 Q219 701 281.5 730.5 Q344 760 417 760 Q490 760 552.5 730.5 Q615 701 661 649.5 Q707 598 733 527.5 Q759 457 759 375 Q759 293 737 225 Q715 157 674.5 107 Q634 57 577 27 Q520 -3 449 -9 L449 -127 L706 -127 L706 -183 L385 -183 L385 -9 Q315 -3 257.5 27 Q200 57 159.5 107 Q119 157 97 225 Q75 293 75 375 Z " />
<glyph glyph-name="R" unicode="R" horiz-adv-x="724" d="M54 0 L54 62 L154 62 L154 688 L54 688 L54 750 L408 750 Q522 750 580.5 695 Q639 640 639 525 Q639 472 620.5 437 Q602 402 570 381.5 Q538 361 496.5 352.5 Q455 344 408 344 L381 344 L604 62 L704 62 L704 0 L584 0 L313 344 L214 344 L214 62 L314 62 L314 0 L54 0 Z M409 373 Q491 373 535 406 Q579 439 579 525 Q579 710 408 710 L214 710 L214 373 L409 373 Z " />
<glyph glyph-name="S" unicode="S" horiz-adv-x="575" d="M49 152 L34 152 L34 252 L93 251 Q96 196 114.5 155 Q133 114 161.5 88 Q190 62 225.5 49 Q261 36 297 36 Q332 36 365 47.5 Q398 59 423.5 81 Q449 103 464.5 135 Q480 167 480 208 Q480 265 437 302.5 Q394 340 307 353 Q192 372 133.5 422 Q75 472 75 550 Q75 603 94.5 642.5 Q114 682 145.5 708.5 Q177 735 218 748.5 Q259 762 301 762 Q334 762 366.5 753.5 Q399 745 427 728.5 Q455 712 477 686.5 Q499 661 511 627 L528 627 L528 527 L468 528 Q464 578 449 612.5 Q434 647 412 669 Q390 691 363.5 701 Q337 711 309 711 Q277 711 246 698.5 Q215 686 190.5 664.5 Q166 643 151 613 Q136 583 136 547 Q136 441 320 411 Q429 394 484.5 342 Q540 290 540 209 Q540 151 518.5 109 Q497 67 462.5 40 Q428 13 384 0 Q340 -13 294 -13 Q204 -13 139.5 26 Q75 65 49 152 Z " />
<glyph glyph-name="T" unicode="T" horiz-adv-x="595" d="M168 0 L168 62 L268 62 L268 700 L72 700 L72 622 L10 622 L10 750 L585 750 L585 622 L523 622 L523 700 L327 700 L327 62 L427 62 L427 0 L168 0 Z " />
<glyph glyph-name="U" unicode="U" horiz-adv-x="763" d="M47 688 L47 750 L307 750 L307 688 L207 688 L207 303 Q207 228 218.5 176.5 Q230 125 253 92.5 Q276 60 310.5 45.5 Q345 31 390 31 Q435 31 469 45 Q503 59 526 90.5 Q549 122 560.5 173 Q572 224 572 297 L573 688 L473 688 L473 750 L733 750 L733 688 L633 688 L633 294 Q633 -10 390 -10 Q147 -10 147 292 L147 688 L47 688 Z " />
<glyph glyph-name="V" unicode="V" horiz-adv-x="759" d="M294 750 L294 688 L212 688 L394 76 Q408 127 429 200 Q450 273 474 358 Q486 400 498 442 Q510 484 523 528 Q535 571 546 611 Q557 651 568 688 L485 688 L485 750 L730 750 L730 688 L630 688 Q604 600 581 525 Q558 450 538 386 Q518 322 501.5 268.5 Q485 215 472 172 Q456 121 443 78 Q430 35 419 0 L362 0 L149 688 L49 688 L49 750 L294 750 Z " />
<glyph glyph-name="W" unicode="W" horiz-adv-x="949" d="M43 750 L294 750 L294 688 L206 688 L318 128 L456 750 L513 750 L651 132 L763 688 L675 688 L675 750 L926 750 L926 688 L826 688 L681 0 L623 0 L484 623 L344 0 L286 0 L143 688 L43 688 L43 750 Z " />
<glyph glyph-name="X" unicode="X" horiz-adv-x="792" d="M176 62 L389 395 L221 688 L120 688 L120 750 L346 750 L346 688 L282 688 L421 445 L577 688 L517 688 L517 750 L743 750 L743 688 L642 688 L452 391 L641 62 L742 62 L742 0 L516 0 L516 62 L580 62 L420 341 L241 62 L301 62 L301 0 L75 0 L75 62 L176 62 Z " />
<glyph glyph-name="Y" unicode="Y" horiz-adv-x="710" d="M21 750 L245 750 L245 688 L182 688 L367 378 L552 688 L489 688 L489 750 L713 750 L713 688 L613 688 L397 330 L397 62 L497 62 L497 0 L237 0 L237 62 L337 62 L337 330 L121 688 L21 688 L21 750 Z " />
<glyph glyph-name="Z" unicode="Z" horiz-adv-x="655" d="M540 701 L122 700 L122 616 L60 616 L60 750 L610 750 L610 701 L116 49 L548 49 L548 149 L610 149 L610 0 L45 0 L45 49 L540 701 Z " />
<glyph glyph-name="a" unicode="a" horiz-adv-x="608" d="M66 260 Q66 313 80 361.5 Q94 410 122.5 447.5 Q151 485 194 507.5 Q237 530 295 530 Q367 530 415 476.5 Q463 423 477 330 L477 520 L530 520 L530 0 L477 0 L477 190 Q463 97 415 43.5 Q367 -10 295 -10 Q238 -10 195.5 12 Q153 34 124 71.5 Q95 109 80.5 158 Q66 207 66 260 Z M125 260 Q125 217 136.5 176 Q148 135 171 103.5 Q194 72 229.5 53 Q265 34 313 34 Q358 34 389.5 55 Q421 76 440.5 109 Q460 142 468.5 182 Q477 222 477 260 Q477 298 468.5 338 Q460 378 440.5 411 Q421 444 389.5 465 Q358 486 313 486 Q265 486 229.5 467 Q194 448 171 416.5 Q148 385 136.5 344.5 Q125 304 125 260 Z " />
<glyph glyph-name="b" unicode="b" horiz-adv-x="583" d="M-30 750 L124 750 L124 334 Q130 377 145.5 413 Q161 449 185.5 475 Q210 501 245 515.5 Q280 530 326 530 Q381 530 420.5 506 Q460 482 485 444 Q510 406 521.5 357.5 Q533 309 533 260 Q533 213 521.5 165 Q510 117 485 78 Q460 39 421 14.5 Q382 -10 326 -10 Q245 -10 192 37 Q139 84 124 186 L124 0 L70 0 L70 688 L-30 688 L-30 750 Z M124 260 Q124 216 133.5 175 Q143 134 164.5 102.5 Q186 71 221.5 52.5 Q257 34 308 34 Q353 34 385 54.5 Q417 75 436.5 107.5 Q456 140 465 180 Q474 220 474 260 Q474 299 465.5 339 Q457 379 437.5 411.5 Q418 444 386 465 Q354 486 308 486 Q258 486 223 468.5 Q188 451 166 420 Q144 389 134 348 Q124 307 124 260 Z " />
<glyph glyph-name="c" unicode="c" horiz-adv-x="557" d="M465 548 L529 548 L527 323 L474 322 Q469 397 427 442.5 Q385 488 310 488 Q272 488 238.5 474.5 Q205 461 179.5 433 Q154 405 139.5 362 Q125 319 125 260 Q125 202 139.5 159 Q154 116 178.5 88.5 Q203 61 236 47.5 Q269 34 305 34 Q339 34 369.5 46 Q400 58 423.5 80.5 Q447 103 460.5 134 Q474 165 474 203 L501 204 L527 204 L527 104 L503 104 Q474 50 421 20 Q368 -10 305 -10 Q257 -10 214 6 Q171 22 138 55 Q105 88 85.5 139 Q66 190 66 260 Q66 330 85.5 381 Q105 432 138.5 465 Q172 498 216.5 514 Q261 530 310 530 Q361 530 399 515 Q437 500 465 473 L465 548 Z " />
<glyph glyph-name="d" unicode="d" horiz-adv-x="589" d="M66 260 Q66 307 77 355 Q88 403 112 442 Q136 481 174.5 505.5 Q213 530 268 530 Q312 530 346.5 512.5 Q381 495 405.5 466 Q430 437 445 399 Q460 361 466 320 L466 688 L366 688 L366 750 L519 750 L519 0 L466 0 L466 200 Q460 160 445.5 122 Q431 84 406.5 54.5 Q382 25 347.5 7.5 Q313 -10 268 -10 Q214 -10 176 14.5 Q138 39 113.5 78 Q89 117 77.5 165 Q66 213 66 260 Z M125 260 Q125 223 133.5 183 Q142 143 160.5 110 Q179 77 210 55.5 Q241 34 286 34 Q333 34 367 53.5 Q401 73 423 105 Q445 137 455.5 177.5 Q466 218 466 260 Q466 301 455.5 341.5 Q445 382 423.5 414 Q402 446 368 466 Q334 486 286 486 Q241 486 210 465 Q179 444 160.5 411 Q142 378 133.5 338 Q125 298 125 260 Z " />
<glyph glyph-name="e" unicode="e" horiz-adv-x="563" d="M533 184 Q533 141 514.5 105 Q496 69 465 43.5 Q434 18 392.5 4 Q351 -10 306 -10 Q258 -10 214.5 6 Q171 22 138 55 Q105 88 85.5 139 Q66 190 66 260 Q66 330 85 381 Q104 432 136.5 465 Q169 498 212 514 Q255 530 304 530 Q360 530 402 509.5 Q444 489 473 452.5 Q502 416 516.5 365.5 Q531 315 531 256 L125 256 Q125 199 140 157 Q155 115 179.5 87.5 Q204 60 237 47 Q270 34 306 34 Q341 34 372.5 45 Q404 56 428 75.5 Q452 95 466 122.5 Q480 150 480 183 L533 184 Z M476 280 Q474 325 462 363.5 Q450 402 428.5 429.5 Q407 457 376 472.5 Q345 488 304 488 Q268 488 237 475.5 Q206 463 182 437.5 Q158 412 143 373 Q128 334 125 280 L476 280 Z " />
<glyph glyph-name="f" unicode="f" horiz-adv-x="385" d="M193 711 L193 520 L405 520 L405 482 L193 482 L193 62 L293 62 L293 0 L39 0 L39 62 L139 62 L139 482 L30 482 L30 520 L139 520 L139 750 L405 750 L405 641 L343 641 L343 711 L193 711 Z " />
<glyph glyph-name="g" unicode="g" horiz-adv-x="579" d="M66 270 Q66 324 76.5 371 Q87 418 112.5 453.5 Q138 489 180 509.5 Q222 530 284 530 Q326 530 356 512.5 Q386 495 406.5 467 Q427 439 439 403.5 Q451 368 456 332 L456 520 L609 520 L609 458 L509 458 L509 23 Q509 -72 455.5 -124 Q402 -176 304 -176 Q261 -176 224 -171.5 Q187 -167 157.5 -151 Q128 -135 107.5 -106 Q87 -77 77 -27 L132 -28 Q139 -54 152 -75 Q163 -95 180.5 -106.5 Q198 -118 219 -124 Q240 -130 262 -132 Q284 -134 304 -134 Q336 -134 364 -126 Q392 -118 412.5 -101.5 Q433 -85 444.5 -60 Q456 -35 456 0 L456 210 Q451 174 439 140 Q427 106 406 79 Q385 52 355 36 Q325 20 284 20 Q226 20 185 38 Q144 56 117.5 88.5 Q91 121 78.5 167 Q66 213 66 270 Z M125 270 Q125 230 133 192.5 Q141 155 159.5 126.5 Q178 98 209.5 81 Q241 64 289 64 Q332 64 363.5 81.5 Q395 99 415.5 127.5 Q436 156 446 193.5 Q456 231 456 270 Q456 300 451 329 Q446 358 434.5 384.5 Q423 411 404 433.5 Q385 456 358 471 Q327 486 289 486 Q241 486 209 468 Q177 450 158.5 420 Q140 390 132.5 351 Q125 312 125 270 Z " />
<glyph glyph-name="h" unicode="h" horiz-adv-x="608" d="M340 0 L340 62 L440 62 L440 476 L169 476 L169 62 L269 62 L269 0 L15 0 L15 62 L115 62 L115 688 L15 688 L15 750 L169 750 L169 520 L493 520 L493 62 L593 62 L593 0 L340 0 Z " />
<glyph glyph-name="i" unicode="i" horiz-adv-x="264" d="M137 660 L197 660 L197 600 L137 600 L137 660 Z M40 0 L40 62 L140 62 L140 458 L40 458 L40 520 L194 520 L194 62 L294 62 L294 0 L40 0 Z " />
<glyph glyph-name="j" unicode="j" horiz-adv-x="243" d="M117 660 L177 660 L177 600 L117 600 L117 660 Z M173 520 L173 -84 L35 -84 L35 -45 L120 -45 L120 458 L20 458 L20 520 L173 520 Z " />
<glyph glyph-name="k" unicode="k" horiz-adv-x="541" d="M2 750 L156 750 L156 285 L400 520 L504 520 L504 458 L403 458 L286 341 L460 62 L561 62 L561 0 L435 0 L244 299 L156 210 L156 62 L256 62 L256 0 L2 0 L2 62 L102 62 L102 688 L2 688 L2 750 Z " />
<glyph glyph-name="l" unicode="l" horiz-adv-x="424" d="M100 0 L100 62 L200 62 L200 688 L100 688 L100 750 L254 750 L254 62 L354 62 L354 0 L100 0 Z " />
<glyph glyph-name="m" unicode="m" horiz-adv-x="757" d="M512 0 L512 62 L589 62 L589 469 L405 469 L405 62 L478 62 L478 0 L276 0 L276 62 L352 62 L352 469 L168 469 L168 62 L239 62 L239 0 L15 0 L15 62 L115 62 L115 458 L15 458 L15 520 L642 520 L642 62 L742 62 L742 0 L512 0 Z " />
<glyph glyph-name="n" unicode="n" horiz-adv-x="675" d="M407 0 L407 62 L507 62 L507 469 L236 469 L236 62 L336 62 L336 0 L82 0 L82 62 L182 62 L182 458 L82 458 L82 520 L560 520 L560 62 L660 62 L660 0 L407 0 Z " />
<glyph glyph-name="o" unicode="o" horiz-adv-x="590" d="M125 260 Q125 208 135.5 165 Q146 122 168 91.5 Q190 61 223.5 44.5 Q257 28 303 28 Q383 28 432 84 Q481 140 481 260 Q481 313 470.5 355.5 Q460 398 438 428.5 Q416 459 382.5 475.5 Q349 492 303 492 Q223 492 174 436 Q125 380 125 260 Z M66 260 Q66 330 83 381 Q100 432 131 465 Q162 498 206 514 Q250 530 303 530 Q365 530 409.5 510.5 Q454 491 483 455.5 Q512 420 526 370.5 Q540 321 540 260 Q540 190 523 139 Q506 88 475 55 Q444 22 400 6 Q356 -10 303 -10 Q242 -10 197 9.5 Q152 29 123 64.5 Q94 100 80 149.5 Q66 199 66 260 Z " />
<glyph glyph-name="p" unicode="p" horiz-adv-x="683" d="M70 458 L70 520 L224 520 L224 334 Q230 377 245.5 413 Q261 449 285.5 475 Q310 501 345 515.5 Q380 530 426 530 Q481 530 520.5 506 Q560 482 585 444 Q610 406 621.5 357.5 Q633 309 633 260 Q633 213 621.5 165 Q610 117 585 78 Q560 39 521 14.5 Q482 -10 426 -10 Q345 -10 292 37 Q239 84 224 186 L224 -93 L324 -93 L324 -155 L70 -155 L70 -93 L170 -93 L170 458 L70 458 Z M224 260 Q224 215 234 174 Q244 133 265.5 102 Q287 71 322 52.5 Q357 34 408 34 Q453 34 485 54.5 Q517 75 536.5 107.5 Q556 140 565 180 Q574 220 574 260 Q574 299 565.5 339 Q557 379 537.5 411.5 Q518 444 486 465 Q454 486 408 486 Q358 486 323 468.5 Q288 451 266 420 Q244 389 234 348 Q224 307 224 260 Z " />
<glyph glyph-name="q" unicode="q" horiz-adv-x="639" d="M66 260 Q66 308 77.5 356 Q89 404 113 442.5 Q137 481 175.5 505.5 Q214 530 268 530 Q313 530 347.5 512.5 Q382 495 406.5 465.5 Q431 436 445.5 398.5 Q460 361 466 320 L466 520 L619 520 L619 458 L519 458 L519 -93 L619 -93 L619 -155 L366 -155 L366 -93 L466 -93 L466 200 Q460 159 445 121 Q430 83 405.5 54 Q381 25 346.5 7.5 Q312 -10 268 -10 Q214 -10 175.5 15 Q137 40 112.5 79 Q88 118 77 166 Q66 214 66 260 Z M286 34 Q353 34 393.5 71 Q434 108 453 168 Q466 210 466 260.5 Q466 311 453 353 Q433 412 392.5 449 Q352 486 286 486 Q241 486 210 465 Q179 444 160.5 411 Q142 378 133.5 338 Q125 298 125 260 Q125 223 133.5 183 Q142 143 160.5 110 Q179 77 210 55.5 Q241 34 286 34 Z " />
<glyph glyph-name="r" unicode="r" horiz-adv-x="363" d="M343 476 L174 476 L174 62 L274 62 L274 0 L20 0 L20 62 L120 62 L120 458 L20 458 L20 520 L343 520 L343 476 Z " />
<glyph glyph-name="s" unicode="s" horiz-adv-x="471" d="M41 175 L88 176 Q88 101 132 69 Q176 37 248 37 Q312 37 351 66.5 Q390 96 390 147 Q390 184 353 209.5 Q316 235 244 243 Q153 252 108 288.5 Q63 325 63 379 Q63 412 76 439 Q89 466 113 485 Q137 504 171 514.5 Q205 525 246 525 Q291 525 325.5 514 Q360 503 384 478 L384 562 L429 562 L429 352 L384 353 Q382 425 344 455.5 Q306 486 246 486 Q186 486 150 458 Q114 430 114 382 Q114 345 148 319.5 Q182 294 249 287 Q343 277 391 239.5 Q439 202 439 148 Q439 114 425.5 85.5 Q412 57 387 37 Q362 17 327 6 Q292 -5 248 -5 Q184 -5 136.5 13.5 Q89 32 64 75 L41 75 L41 175 Z " />
<glyph glyph-name="t" unicode="t" horiz-adv-x="365" d="M335 478 L209 478 L209 42 L335 42 L335 0 L156 0 L156 478 L30 478 L30 520 L156 520 L156 655 L209 655 L209 520 L335 520 L335 478 Z " />
<glyph glyph-name="u" unicode="u" horiz-adv-x="608" d="M115 0 L115 458 L15 458 L15 520 L169 520 L169 44 L440 44 L440 458 L340 458 L340 520 L493 520 L493 62 L593 62 L593 0 L115 0 Z " />
<glyph glyph-name="v" unicode="v" horiz-adv-x="590" d="M237 520 L237 458 L159 458 L304 46 L448 458 L370 458 L370 520 L605 520 L605 458 L505 458 L322 0 L273 0 L100 458 L0 458 L0 520 L237 520 Z " />
<glyph glyph-name="w" unicode="w" horiz-adv-x="846" d="M-5 520 L233 520 L233 458 L150 458 L264 43 L398 520 L444 520 L582 46 L692 458 L609 458 L609 520 L846 520 L846 458 L746 458 L598 0 L554 0 L420 446 L278 0 L234 0 L95 458 L-5 458 L-5 520 Z " />
<glyph glyph-name="x" unicode="x" horiz-adv-x="551" d="M-32 0 L-32 62 L68 62 L226 270 Q184 325 149 374 Q114 423 88 458 L-12 458 L-12 520 L252 520 L252 458 L167 458 Q186 431 211 396 Q236 361 265 321 L368 458 L315 458 L315 520 L536 520 L536 458 L436 458 L298 275 Q336 221 376 166 Q416 111 451 62 L552 62 L552 0 L303 0 L303 62 L378 62 Q350 100 320 141 Q290 182 259 224 L136 62 L189 62 L189 0 L-32 0 Z " />
<glyph glyph-name="y" unicode="y" horiz-adv-x="590" d="M370 458 L370 520 L603 520 L603 458 L503 458 L197 -250 L137 -250 L260 34 L100 458 L0 458 L0 520 L237 520 L237 458 L159 458 L288 99 L443 458 L370 458 Z " />
<glyph glyph-name="z" unicode="z" horiz-adv-x="460" d="M378 142 L440 142 L440 0 L30 0 L30 7 L340 478 L107 478 L107 358 L45 358 L45 520 L424 520 L424 513 L111 41 L378 42 L378 142 Z " />
</font>
</svg>
