<svg xmlns="http://www.w3.org/2000/svg" viewBox="0 0 123.31 31.01"><defs><style>.cls-1{fill:#f3e08b;}</style></defs><g id="Capa_2" data-name="Capa 2"><g id="Capa_1-2" data-name="Capa 1"><path class="cls-1" d="M83,24.27a5.37,5.37,0,0,1-1.22-1,1.16,1.16,0,0,0-1.35-.4c-1.6.53-3.19,1-4.83,1.44A8,8,0,0,1,72,24c-.28-.05-.15-.28-.16-.42s-.06-.34.22-.44a13.23,13.23,0,0,1,4.31-.91c.29,0,.58-.05.89-.08A3.4,3.4,0,0,0,72,21.34a1.71,1.71,0,0,1-.18.2c-.21.15-.49.4-.7.16s-.43-.62-.11-1a3,3,0,0,1,1.94-1,5.84,5.84,0,0,1,4.24,1.07,1.77,1.77,0,0,1,.54.55c.61,1.07.36,1.42-.69,1.55-1.21.14-2.43.22-3.64.32-.15,0-.32,0-.34.22s.11.27.3.33a4.92,4.92,0,0,0,2.47-.06,10.61,10.61,0,0,0,4.68-1.9A5.94,5.94,0,0,1,82.2,21a.94.94,0,0,1,1.22.58c.06.3.17.28.35.26l4.15-.46c.5-.05,1-.09,1.51-.15a.79.79,0,0,0,.74-.75,25.36,25.36,0,0,0,0-3c0-1.78,0-3.56,0-5.33,0-3.56,0-7.11-.08-10.67A1.59,1.59,0,0,1,90.65,0,1.47,1.47,0,0,1,91,1c0,4.12,0,8.23,0,12.34,0,2.9-.05,5.79,0,8.68,0,.42,0,.83.09,1.32l1.7-.78a11.34,11.34,0,0,1,4.34-1.16,2.53,2.53,0,0,1,1.91.53,1.67,1.67,0,0,1-.29,2.78c-.14.05-.32.23-.41.12a.57.57,0,0,1-.07-.59,3.4,3.4,0,0,0,.28-1.05A.94.94,0,0,0,97.7,22a7.31,7.31,0,0,0-4,.78,8.26,8.26,0,0,0-2.43,1.7c-.29.29-.73.67-1,.56s-.24-.7-.23-1.09c0-.58.05-1.15.1-1.72,0-.28,0-.37-.34-.34l-3.33.25c-1.15.09-2.29.2-3.43.27-.57,0-.6.06-.45.62Z"/><path class="cls-1" d="M2.06,22.34c.11,2.08.2,4.11.34,6.14A3.74,3.74,0,0,1,2,31a2.88,2.88,0,0,1-.47-1.59c0-2.27,0-4.53,0-6.8V22L0,22.34c.18-.44.32-.83.5-1.2a8.25,8.25,0,0,0,.65-4.22C1,15.05,1,13.17.93,11.29S.75,7.57.65,5.71a13,13,0,0,0-.16-1.4A2,2,0,0,1,.75,2.85a1.62,1.62,0,0,1,.73,1.41c.08,2.83.14,5.67.25,8.5.1,2.49.08,5,.29,7.49,1.7-.51,3.37-1,5.07-1.4,1-.23,2.08-.4,3.13-.57.2,0,.34,0,.39.25s-.06.31-.27.36c-2.54.57-5.07,1.16-7.61,1.75-.17,0-.41,0-.47.23s.09.44.28.62a9.68,9.68,0,0,0,3.33,2c.59.23,1.21.41,1.81.62.15.05.41,0,.32.26s-.1.57-.53.48a7.42,7.42,0,0,1-2.09-.78c-.88-.48-1.74-1-2.62-1.48A1.27,1.27,0,0,0,2.06,22.34Z"/><path class="cls-1" d="M36.51,20.87a14.13,14.13,0,0,0,1.08,1.54,2.7,2.7,0,0,0,3.13.9,11.22,11.22,0,0,0,2.34-1.13.29.29,0,0,0,.16-.41,1.13,1.13,0,0,1,.6-1.53A4.9,4.9,0,0,1,48.14,20,4.18,4.18,0,0,1,50,21.1a2.06,2.06,0,0,1,.36.56c.29.6.15.93-.49,1.09a26.94,26.94,0,0,1-3.47.42,2.47,2.47,0,0,0-.71.13c-.15.05-.29.11-.27.32s.22.18.35.19a8.13,8.13,0,0,0,4-.7c1.45-.66,2.93-1.25,4.4-1.88A3,3,0,0,1,55.61,21a1.63,1.63,0,0,1-1,1c-2.35.84-4.69,1.69-7.08,2.42a3.47,3.47,0,0,1-3.44-.82c1.63-1.47,3.69-1.08,5.58-1.38-.79-1.79-4.16-2.38-5.24-.93a5.43,5.43,0,0,0,1,.14c.29,0,.25.2.32.37s-.06.28-.21.33c-1.31.41-2.5,1.11-3.8,1.56A7.11,7.11,0,0,1,39,24a3.22,3.22,0,0,1-1.82-.83c-.35-.28-.7-.74-1.08-.77s-.68.51-1,.8A2.06,2.06,0,0,1,33,23.8a.65.65,0,0,1-.46-.51,2,2,0,0,1,1.14-2.41c.17-.09.26-.08.38.07s.19.29,0,.44a2.53,2.53,0,0,0-.67,1.38c-.08.29,0,.33.27.31a1.8,1.8,0,0,0,1-.37C35.29,22.15,35.86,21.49,36.51,20.87Z"/><path class="cls-1" d="M21.91,21.9l5.73-.75,2-.26a.77.77,0,0,1,.84.48,5.41,5.41,0,0,1-.24,3.23c-.74-.41-.67-1.12-.63-1.79.05-.95.08-.95-.85-.89-2.47.17-4.93.35-7.4.51-.26,0-.32.06-.24.33a6.1,6.1,0,0,1,.3,1.46,3.44,3.44,0,0,1-1-.81c-.59-.71-.88-.79-1.77-.48q-2.49.86-5,1.45a3.46,3.46,0,0,1-3.19-.65c-.24-.2-.25-.29,0-.48a6.35,6.35,0,0,1,3.11-.91l1.93-.11c.33,0,.43-.12.2-.44a3.72,3.72,0,0,0-2.82-1.33,5.93,5.93,0,0,0-.83-.07,1.59,1.59,0,0,0-1.68.89c-.15.34-.43.35-.71.43s-.21-.07-.24-.19c-.06-.32-.2-.66.08-.94a2.7,2.7,0,0,1,1.24-.73,6.06,6.06,0,0,1,4.88.82,2.66,2.66,0,0,1,.94,1c.28.56.14.9-.47,1.06a11.19,11.19,0,0,1-2.38.19,10.37,10.37,0,0,0-2,.37c-.09,0-.25,0-.25.2s.17.17.29.19a10.07,10.07,0,0,0,7-1.77,7.55,7.55,0,0,1,2-1A.9.9,0,0,1,21.91,21.9Z"/><path class="cls-1" d="M122.94,20.78a5.92,5.92,0,0,1,.13,3.77s-.08,0-.1,0a1.81,1.81,0,0,0-2.31-.6,3.27,3.27,0,0,1-3.4-.65c-.19-.18-.32-.06-.47,0a9,9,0,0,1-1.42.62,2.1,2.1,0,0,1-2.06-.37.4.4,0,0,0-.61,0c-.34.25-.67.49-1,.71a1.42,1.42,0,0,1-1.66-.1,1.29,1.29,0,0,1-.43-1.44,2.09,2.09,0,0,1,.07-.36c.55-1.42.9-1.51,2.29-1.45l-1.12,1.39c-.06.08-.12.17-.19.25-.21.29-.33.66-.09.91a.76.76,0,0,0,1,0,8.94,8.94,0,0,0,1.86-1.67c.08-.09.14-.28.29-.23A.44.44,0,0,1,114,22a5.9,5.9,0,0,1,.11.93c0,.37.13.43.45.39a3.74,3.74,0,0,0,2.62-1.22c.23-.28.39-.22.5.09.37,1.06,1.13,1.26,2.16,1.06.74-.15,1.5-.25,2.24-.46.25-.07.38-.18.33-.47A1.65,1.65,0,0,1,122.94,20.78Z"/><path class="cls-1" d="M107,20.81a1.2,1.2,0,0,1,.59,1,5.09,5.09,0,0,0,1.94,3.06,2.36,2.36,0,0,1,.54.75c.06.14.08.25-.07.35s-.23.19-.41.07a3,3,0,0,1-.8-.74c-.4-.55-.82-1.08-1.19-1.65a.46.46,0,0,0-.63-.21,13,13,0,0,1-3.25.87,2.72,2.72,0,0,1-3-2.3.85.85,0,0,1,.19-.73.73.73,0,0,1,.75-.25c.24.08.2.41.16.64a1.53,1.53,0,0,0,1.82,2,7.33,7.33,0,0,0,2.39-.66,1,1,0,0,0,.65-1.26A1,1,0,0,1,107,20.81Z"/><path class="cls-1" d="M123.18,19.28a1.82,1.82,0,0,1-1-1.56,1.3,1.3,0,0,1,1-1.14Z"/><path class="cls-1" d="M30.35,16.52v2.64a1.52,1.52,0,0,1-.7-1.39A1.43,1.43,0,0,1,30.35,16.52Z"/><path class="cls-1" d="M69.58,22.39c-1.79-1.26-4.91-1.83-7.06-.55-.83.48-.85.47-.94-.51-.34-3.53-.83-7-1-10.6a53.77,53.77,0,0,1,.11-7.51A3,3,0,0,0,60.51,1a2.17,2.17,0,0,0-.6,1.66c0,2,0,4.08.06,6.12q.06,2.79.21,5.58c.21,3.61.44,7.22.67,10.83,0,.51.06,1,.1,1.51,0,.33.24.73.48.75s.43-.4.52-.69a2.16,2.16,0,0,0,0-.57c0-.49,0-1,0-1.47,0-.22,0-.3.29-.25a5.81,5.81,0,0,0,1.24.13c1.84-.1,3.69-.07,5.53-.28a1.16,1.16,0,0,0,1.13-.76A1.11,1.11,0,0,0,69.58,22.39ZM62.77,23.7c-.28-.07-.32-.22-.25-.45a1.43,1.43,0,0,1,.85-1c1.73-.65,4.37-.76,5.94,1a1.39,1.39,0,0,1,.17.2A13.19,13.19,0,0,1,62.77,23.7Z"/></g></g></svg>